<svg width="17" height="17" viewBox="0 0 17 17" fill="none" xmlns="http://www.w3.org/2000/svg">
<path d="M13.0031 7.2296V4.53742C13.0103 3.31927 12.5238 2.14798 11.6552 1.29383C10.8155 0.457706 9.71626 0 8.55217 0C8.53415 0 8.51253 0 8.49451 0C6.01136 0.00360399 3.99313 2.03625 3.99313 4.53742V7.2296C3.0561 7.34132 2.37134 8.12699 2.37134 9.07844V15.1259C2.37134 16.1531 3.19305 17 4.22018 17H12.7796C13.8068 17 14.6285 16.1531 14.6285 15.1259V9.07844C14.6249 8.13059 13.9401 7.34132 13.0031 7.2296ZM4.71032 4.53742H4.71393C4.71393 2.43269 6.41141 0.709985 8.49811 0.709985H8.50172C9.49281 0.706381 10.4443 1.09922 11.147 1.79839C11.8787 2.52279 12.2859 3.51028 12.2787 4.53742V7.2332H11.4858V4.53742C11.493 3.71931 11.1687 2.93364 10.5884 2.35701C10.0406 1.8092 9.2982 1.49926 8.52334 1.49926H8.50172C6.84388 1.49926 5.5032 2.86156 5.5032 4.53381V7.2332H4.71032V4.53742ZM10.7686 4.53742V7.2332H6.2276V4.53742C6.2276 3.26161 7.24393 2.22366 8.50532 2.22366H8.52695C9.11079 2.22366 9.67301 2.45792 10.0875 2.87238C10.5272 3.31206 10.7758 3.91393 10.7686 4.53742ZM13.9401 15.1367C13.9401 15.7674 13.4284 16.2792 12.7977 16.2792H4.2346C3.6039 16.2792 3.09214 15.7674 3.09214 15.1367V9.09646C3.09214 8.46576 3.6039 7.954 4.2346 7.954H12.7977C13.4284 7.954 13.9401 8.46576 13.9401 9.09646V15.1367Z" fill="#280948"/>
<path d="M9.74528 11.8933C9.58671 11.3347 9.07855 10.9526 8.49831 10.9526C7.78111 10.9526 7.19727 11.5329 7.19727 12.2537C7.19727 12.8339 7.57929 13.3421 8.13791 13.5007V14.5098C8.13791 14.708 8.30009 14.8702 8.49831 14.8702C8.69652 14.8702 8.8587 14.708 8.8587 14.5098V13.5007C9.54707 13.3024 9.94711 12.5816 9.74528 11.8933ZM8.49831 12.8303C8.17755 12.8303 7.91806 12.5708 7.91806 12.2501C7.91806 11.9293 8.17755 11.6698 8.49831 11.6698C8.81906 11.6698 9.07855 11.9293 9.07855 12.2501C9.07855 12.5708 8.81906 12.8303 8.49831 12.8303Z" fill="#280948"/>
</svg>
