<svg width="17" height="18" viewBox="0 0 17 18" fill="none" xmlns="http://www.w3.org/2000/svg">
<path d="M11.6875 7.3125C11.6875 7.16332 11.7435 7.02024 11.8431 6.91475C11.9427 6.80926 12.0779 6.75 12.2188 6.75H13.2812C13.4221 6.75 13.5573 6.80926 13.6569 6.91475C13.7565 7.02024 13.8125 7.16332 13.8125 7.3125V8.4375C13.8125 8.58668 13.7565 8.72976 13.6569 8.83525C13.5573 8.94074 13.4221 9 13.2812 9H12.2188C12.0779 9 11.9427 8.94074 11.8431 8.83525C11.7435 8.72976 11.6875 8.58668 11.6875 8.4375V7.3125ZM8.5 7.3125C8.5 7.16332 8.55597 7.02024 8.6556 6.91475C8.75523 6.80926 8.89035 6.75 9.03125 6.75H10.0938C10.2346 6.75 10.3698 6.80926 10.4694 6.91475C10.569 7.02024 10.625 7.16332 10.625 7.3125V8.4375C10.625 8.58668 10.569 8.72976 10.4694 8.83525C10.3698 8.94074 10.2346 9 10.0938 9H9.03125C8.89035 9 8.75523 8.94074 8.6556 8.83525C8.55597 8.72976 8.5 8.58668 8.5 8.4375V7.3125ZM3.1875 10.6875C3.1875 10.5383 3.24347 10.3952 3.3431 10.2898C3.44273 10.1843 3.57785 10.125 3.71875 10.125H4.78125C4.92215 10.125 5.05727 10.1843 5.1569 10.2898C5.25653 10.3952 5.3125 10.5383 5.3125 10.6875V11.8125C5.3125 11.9617 5.25653 12.1048 5.1569 12.2102C5.05727 12.3157 4.92215 12.375 4.78125 12.375H3.71875C3.57785 12.375 3.44273 12.3157 3.3431 12.2102C3.24347 12.1048 3.1875 11.9617 3.1875 11.8125V10.6875ZM6.375 10.6875C6.375 10.5383 6.43097 10.3952 6.5306 10.2898C6.63023 10.1843 6.76535 10.125 6.90625 10.125H7.96875C8.10965 10.125 8.24477 10.1843 8.3444 10.2898C8.44403 10.3952 8.5 10.5383 8.5 10.6875V11.8125C8.5 11.9617 8.44403 12.1048 8.3444 12.2102C8.24477 12.3157 8.10965 12.375 7.96875 12.375H6.90625C6.76535 12.375 6.63023 12.3157 6.5306 12.2102C6.43097 12.1048 6.375 11.9617 6.375 11.8125V10.6875Z" fill="#280948"/>
<path d="M3.71875 0C3.85965 0 3.99477 0.0592632 4.0944 0.164752C4.19403 0.270242 4.25 0.413316 4.25 0.5625V1.125H12.75V0.5625C12.75 0.413316 12.806 0.270242 12.9056 0.164752C13.0052 0.0592632 13.1404 0 13.2812 0C13.4221 0 13.5573 0.0592632 13.6569 0.164752C13.7565 0.270242 13.8125 0.413316 13.8125 0.5625V1.125H14.875C15.4386 1.125 15.9791 1.36205 16.3776 1.78401C16.7761 2.20597 17 2.77826 17 3.375V15.75C17 16.3467 16.7761 16.919 16.3776 17.341C15.9791 17.7629 15.4386 18 14.875 18H2.125C1.56141 18 1.02091 17.7629 0.622398 17.341C0.223883 16.919 0 16.3467 0 15.75V3.375C0 2.77826 0.223883 2.20597 0.622398 1.78401C1.02091 1.36205 1.56141 1.125 2.125 1.125H3.1875V0.5625C3.1875 0.413316 3.24347 0.270242 3.3431 0.164752C3.44273 0.0592632 3.57785 0 3.71875 0V0ZM1.0625 4.5V15.75C1.0625 16.0484 1.17444 16.3345 1.3737 16.5455C1.57296 16.7565 1.84321 16.875 2.125 16.875H14.875C15.1568 16.875 15.427 16.7565 15.6263 16.5455C15.8256 16.3345 15.9375 16.0484 15.9375 15.75V4.5H1.0625Z" fill="#280948"/>
</svg>
