<svg width="56" height="56" viewBox="0 0 56 56" fill="none" xmlns="http://www.w3.org/2000/svg">
<path d="M27.9868 0C12.6746 0 0 12.4569 0 27.769C0 43.0812 12.6746 55.7558 27.9868 55.7558C43.299 55.7558 55.7558 43.0812 55.7558 27.769C55.7558 12.4569 43.299 0 27.9868 0ZM42.688 31.036H31.2537V42.688C31.2537 44.4892 29.7869 45.955 27.9868 45.955C26.1856 45.955 24.7199 44.4892 24.7199 42.688V31.036H13.0678C11.2666 31.036 9.80083 29.5702 9.80083 27.769C9.80083 25.9678 11.2666 24.5021 13.0678 24.5021H24.7199V13.0678C24.7199 11.2666 26.1856 9.80083 27.9868 9.80083C29.7869 9.80083 31.2537 11.2666 31.2537 13.0678V24.5021H42.688C44.4881 24.5021 45.955 25.9678 45.955 27.769C45.955 29.5702 44.4881 31.036 42.688 31.036Z" fill="#280948"/>
</svg>
