<svg width="354" height="290" viewBox="0 0 354 290" fill="none" xmlns="http://www.w3.org/2000/svg">
<path d="M11.6055 133V136" stroke="#764BA2" stroke-width="2.921" stroke-linecap="round"/>
<path d="M4.86719 134.625L7.31862 137.149" stroke="#764BA2" stroke-width="2.921" stroke-linecap="round"/>
<path d="M2 141.343H5.46629" stroke="#764BA2" stroke-width="2.921" stroke-linecap="round"/>
<path d="M4.58594 148.18L7.03737 145.656" stroke="#764BA2" stroke-width="2.921" stroke-linecap="round"/>
<path d="M11.6055 149V146" stroke="#764BA2" stroke-width="2.921" stroke-linecap="round"/>
<path d="M16.6055 147L14.6055 145" stroke="#764BA2" stroke-width="2.921" stroke-linecap="round"/>
<path d="M20.6055 142H17.6055" stroke="#764BA2" stroke-width="2.921" stroke-linecap="round"/>
<path d="M18.6055 135L16.6055 137" stroke="#764BA2" stroke-width="2.921" stroke-linecap="round"/>
<path d="M172.605 2V4" stroke="#764BA2" stroke-width="2.921" stroke-linecap="round"/>
<path d="M166.605 8H168.605" stroke="#764BA2" stroke-width="2.921" stroke-linecap="round"/>
<path d="M172.605 14V12" stroke="#764BA2" stroke-width="2.921" stroke-linecap="round"/>
<path d="M177.605 8H175.605" stroke="#764BA2" stroke-width="2.921" stroke-linecap="round"/>
<path d="M56.6055 86V89" stroke="#667EEA" stroke-width="2.921" stroke-linecap="round"/>
<path d="M47.6055 95H50.6055" stroke="#667EEA" stroke-width="2.921" stroke-linecap="round"/>
<path d="M56.6055 103V100" stroke="#667EEA" stroke-width="2.921" stroke-linecap="round"/>
<path d="M64.6055 95H61.6055" stroke="#667EEA" stroke-width="2.921" stroke-linecap="round"/>
<path d="M271.859 195.039C274.249 195.039 276.187 196.978 276.187 199.368C276.187 201.759 274.249 203.697 271.859 203.697C269.469 203.697 267.531 201.759 267.531 199.368" stroke="#280948" stroke-width="2.921" stroke-linecap="round"/>
<path fill-rule="evenodd" clip-rule="evenodd" d="M291.666 155.763C294.236 154.962 298.175 151.819 299.087 148.438C299.914 151.427 303.38 154.962 306.508 155.229C302.987 156.476 299.621 160.179 299.087 163.088C298.723 160.123 294.068 156.196 291.666 155.763" fill="#FFC000"/>
<path fill-rule="evenodd" clip-rule="evenodd" d="M27.877 193.705C29.1623 193.305 31.131 191.734 31.5869 190.043C32.0003 191.537 33.7331 193.305 35.2968 193.439C33.537 194.061 31.8543 195.913 31.5869 197.368C31.4052 195.885 29.0774 193.921 27.877 193.705" fill="#667EEA"/>
<path fill-rule="evenodd" clip-rule="evenodd" d="M51.7294 54.597C51.7294 56.4517 50.2268 57.9539 48.3735 57.9539C46.5194 57.9539 45.0176 56.4517 45.0176 54.597C45.0176 52.7433 46.5194 51.2402 48.3735 51.2402C50.2268 51.2402 51.7294 52.7433 51.7294 54.597" fill="#280948"/>
<path fill-rule="evenodd" clip-rule="evenodd" d="M275.824 63.6105C275.824 66.7092 273.312 69.2211 270.215 69.2211C267.117 69.2211 264.605 66.7092 264.605 63.6105C264.605 60.5119 267.117 58 270.215 58C273.312 58 275.824 60.5119 275.824 63.6105" fill="#143B8C"/>
<path fill-rule="evenodd" clip-rule="evenodd" d="M353.519 48.4097C353.519 50.868 351.527 52.8602 349.07 52.8602C346.613 52.8602 344.621 50.868 344.621 48.4097C344.621 45.9513 346.613 43.9591 349.07 43.9591C351.527 43.9591 353.519 45.9513 353.519 48.4097" fill="#280948"/>
<path fill-rule="evenodd" clip-rule="evenodd" d="M114.449 256.268C114.449 257.817 113.193 259.073 111.644 259.073C110.095 259.073 108.84 257.817 108.84 256.268C108.84 254.718 110.095 253.462 111.644 253.462C113.193 253.462 114.449 254.718 114.449 256.268Z" stroke="#FFC000" stroke-width="2.921" stroke-linecap="round"/>
<path fill-rule="evenodd" clip-rule="evenodd" d="M112.78 33.0317C112.78 34.8863 111.278 36.3885 109.424 36.3885C107.571 36.3885 106.068 34.8863 106.068 33.0317C106.068 31.178 107.571 29.6749 109.424 29.6749C111.278 29.6749 112.78 31.178 112.78 33.0317Z" stroke="#FFC000" stroke-width="2.921" stroke-linecap="round"/>
<path fill-rule="evenodd" clip-rule="evenodd" d="M198.383 287.336C196.239 288.152 193.839 287.075 193.023 284.93C192.207 282.785 193.283 280.384 195.429 279.569C197.572 278.753 199.972 279.829 200.788 281.974C201.605 284.119 200.527 286.52 198.383 287.336Z" stroke="#667EEA" stroke-width="2.921" stroke-linecap="round"/>
<path fill-rule="evenodd" clip-rule="evenodd" d="M197.105 208H115.1C109.328 208 104.604 203.261 104.604 197.47V80.5275C104.604 74.7362 109.328 70 115.1 70H197.105C202.879 70 207.604 74.7362 207.604 80.5275V197.47C207.604 203.261 202.879 208 197.105 208Z" fill="#96B2FD" fill-opacity="0.3"/>
<path fill-rule="evenodd" clip-rule="evenodd" d="M190.105 213H108.1C102.328 213 97.6035 208.261 97.6035 202.47V85.5275C97.6035 79.7362 102.328 75 108.1 75H190.105C195.879 75 200.604 79.7362 200.604 85.5275V202.47C200.604 208.261 195.879 213 190.105 213" fill="#96B2FD" fill-opacity="0.3"/>
<path fill-rule="evenodd" clip-rule="evenodd" d="M183.296 216.947H101.122C95.3379 216.947 90.6035 212.228 90.6035 206.461V90.0025C90.6035 84.2351 95.3379 79.5186 101.122 79.5186H183.296C189.082 79.5186 193.816 84.2351 193.816 90.0025V206.461C193.816 212.228 189.082 216.947 183.296 216.947" fill="#D8DBEA"/>
<path fill-rule="evenodd" clip-rule="evenodd" d="M183.296 216.947H101.122C95.3379 216.947 90.6035 212.228 90.6035 206.461V90.0025C90.6035 84.2351 95.3379 79.5186 101.122 79.5186H183.296C189.082 79.5186 193.816 84.2351 193.816 90.0025V206.461C193.816 212.228 189.082 216.947 183.296 216.947" fill="#96B2FD" fill-opacity="0.3"/>
<path fill-rule="evenodd" clip-rule="evenodd" d="M171.451 115H110.756C109.022 115 107.604 113.65 107.604 112.001C107.604 110.35 109.022 109 110.756 109H171.451C173.185 109 174.604 110.35 174.604 112.001C174.604 113.65 173.185 115 171.451 115" fill="#E0E2EE"/>
<path fill-rule="evenodd" clip-rule="evenodd" d="M171.451 133H110.756C109.022 133 107.604 131.65 107.604 130.001C107.604 128.35 109.022 127 110.756 127H171.451C173.185 127 174.604 128.35 174.604 130.001C174.604 131.65 173.185 133 171.451 133" fill="#E0E2EE"/>
<path fill-rule="evenodd" clip-rule="evenodd" d="M171.451 151H110.756C109.022 151 107.604 149.65 107.604 148.001C107.604 146.352 109.022 145 110.756 145H171.451C173.185 145 174.604 146.352 174.604 148.001C174.604 149.65 173.185 151 171.451 151" fill="#E0E2EE"/>
<path fill-rule="evenodd" clip-rule="evenodd" d="M171.451 169H110.756C109.022 169 107.604 167.65 107.604 166.001C107.604 164.35 109.022 163 110.756 163H171.451C173.185 163 174.604 164.35 174.604 166.001C174.604 167.65 173.185 169 171.451 169" fill="#E0E2EE"/>
<path fill-rule="evenodd" clip-rule="evenodd" d="M142.438 187H110.769C109.028 187 107.604 185.65 107.604 184.001C107.604 182.35 109.028 181 110.769 181H142.438C144.179 181 145.604 182.35 145.604 184.001C145.604 185.65 144.179 187 142.438 187" fill="#E0E2EE"/>
<path fill-rule="evenodd" clip-rule="evenodd" d="M206.358 163.737C194.222 175.871 175.433 177.24 161.792 167.872C160.049 166.653 158.389 165.284 156.842 163.737C156.045 162.943 155.295 162.124 154.587 161.261C153.172 159.538 151.933 157.701 150.917 155.803C149.128 152.597 147.912 149.195 147.248 145.679C145.105 134.651 148.309 122.781 156.842 114.252C165.396 105.697 177.268 102.514 188.297 104.636C191.812 105.321 195.217 106.537 198.423 108.305C200.324 109.343 202.136 110.583 203.862 111.997C204.722 112.702 205.542 113.455 206.336 114.252C207.885 115.799 209.275 117.455 210.471 119.201C219.844 132.837 218.472 151.625 206.358 163.737" fill="white" fill-opacity="0.1"/>
<path fill-rule="evenodd" clip-rule="evenodd" d="M202.962 161.347C190.336 173.976 169.873 173.973 157.244 161.347C144.632 148.734 144.632 128.27 157.261 115.643C169.873 103.03 190.336 103.03 202.948 115.643C215.575 128.27 215.575 148.734 202.962 161.347M209.442 109.156C193.235 92.9482 166.972 92.9482 150.764 109.156C134.559 125.361 134.545 151.64 150.75 167.848C165.501 182.594 188.621 183.924 204.882 171.816C206.47 170.632 208 169.305 209.459 167.848C210.916 166.389 212.243 164.859 213.425 163.271C225.532 147.007 224.191 123.904 209.442 109.156Z" fill="#D8DBEA"/>
<path fill-rule="evenodd" clip-rule="evenodd" d="M273.226 228.942L272.545 229.622C268.044 234.126 260.672 234.126 256.168 229.622L214.604 188.057L231.661 171L273.226 212.565C277.729 217.069 277.729 224.438 273.226 228.942" fill="url(#paint0_linear_820_582)"/>
<g filter="url(#filter0_d_820_582)">
<path fill-rule="evenodd" clip-rule="evenodd" d="M214.321 162L226.604 174.283L217.884 183L205.604 170.717C207.224 169.509 208.783 168.154 210.274 166.668C211.76 165.182 213.115 163.621 214.321 162" fill="#D8DBEA"/>
</g>
<path fill-rule="evenodd" clip-rule="evenodd" d="M272.604 212.054L255.655 229L252.604 225.946L269.55 209L272.604 212.054Z" fill="#764BA2"/>
<path fill-rule="evenodd" clip-rule="evenodd" d="M232.604 171.587L215.191 189L212.604 186.413L230.016 169L232.604 171.587Z" fill="url(#paint1_linear_820_582)"/>
<path fill-rule="evenodd" clip-rule="evenodd" d="M194.604 111.299L151.9 154C150.292 151.118 149.198 148.059 148.604 144.898L185.501 108C188.66 108.618 191.721 109.709 194.604 111.299" fill="white" fill-opacity="0.5"/>
<path fill-rule="evenodd" clip-rule="evenodd" d="M208.604 121.448L162.436 165C160.783 163.912 159.209 162.687 157.742 161.302C156.987 160.59 156.272 159.859 155.604 159.087L202.333 115C203.151 115.633 203.928 116.307 204.681 117.02C206.149 118.404 207.469 119.886 208.604 121.448" fill="white" fill-opacity="0.5"/>
<path d="M188.446 138L197.679 129.592C198.543 128.76 199.017 127.654 199 126.51C198.982 125.366 198.474 124.273 197.583 123.464C196.693 122.655 195.49 122.193 194.231 122.177C192.971 122.16 191.755 122.591 190.839 123.377L181.587 131.785L172.354 123.377C171.91 122.95 171.376 122.608 170.784 122.371C170.192 122.135 169.553 122.009 168.906 122C168.26 121.992 167.618 122.102 167.018 122.323C166.419 122.544 165.874 122.872 165.417 123.288C164.96 123.703 164.599 124.198 164.355 124.743C164.112 125.287 163.991 125.871 164 126.459C164.01 127.046 164.148 127.626 164.409 128.165C164.669 128.703 165.045 129.188 165.515 129.592L174.763 138L165.515 146.408C165.045 146.812 164.669 147.297 164.409 147.835C164.148 148.374 164.01 148.954 164 149.541C163.991 150.129 164.112 150.713 164.355 151.257C164.599 151.802 164.96 152.297 165.417 152.712C165.874 153.128 166.419 153.456 167.018 153.677C167.618 153.898 168.26 154.008 168.906 154C169.553 153.991 170.192 153.865 170.784 153.629C171.376 153.392 171.91 153.05 172.354 152.623L181.607 144.215L190.86 152.623C191.784 153.363 192.984 153.754 194.215 153.718C195.445 153.682 196.614 153.22 197.484 152.428C198.353 151.636 198.857 150.572 198.894 149.453C198.93 148.335 198.495 147.246 197.679 146.408L188.446 138Z" fill="#280948"/>
<defs>
<filter id="filter0_d_820_582" x="201.604" y="162" width="29" height="29" filterUnits="userSpaceOnUse" color-interpolation-filters="sRGB">
<feFlood flood-opacity="0" result="BackgroundImageFix"/>
<feColorMatrix in="SourceAlpha" type="matrix" values="0 0 0 0 0 0 0 0 0 0 0 0 0 0 0 0 0 0 127 0" result="hardAlpha"/>
<feOffset dy="4"/>
<feGaussianBlur stdDeviation="2"/>
<feComposite in2="hardAlpha" operator="out"/>
<feColorMatrix type="matrix" values="0 0 0 0 0 0 0 0 0 0 0 0 0 0 0 0 0 0 0.25 0"/>
<feBlend mode="normal" in2="BackgroundImageFix" result="effect1_dropShadow_820_582"/>
<feBlend mode="normal" in="SourceGraphic" in2="effect1_dropShadow_820_582" result="shape"/>
</filter>
<linearGradient id="paint0_linear_820_582" x1="245.604" y1="140" x2="183.604" y2="202" gradientUnits="userSpaceOnUse">
<stop stop-color="#96B2FD"/>
<stop offset="1" stop-color="#764BA2"/>
</linearGradient>
<linearGradient id="paint1_linear_820_582" x1="222.604" y1="159" x2="202.604" y2="179" gradientUnits="userSpaceOnUse">
<stop stop-color="#764BA2"/>
<stop offset="1" stop-color="#FFD3F8"/>
</linearGradient>
</defs>
</svg>
