<svg width="19" height="20" viewBox="0 0 19 20" fill="none" xmlns="http://www.w3.org/2000/svg">
<path d="M9.72866 0.094273C7.8727 0.0775648 6.04484 0.617608 4.47625 1.64612C2.90765 2.67462 1.66877 4.14541 0.916269 5.87246C0.163764 7.59951 -0.0685667 9.50527 0.248658 11.3487C0.565883 13.1922 1.41842 14.8906 2.69845 16.2291C3.97848 17.5677 5.62851 18.4862 7.4399 18.8686C9.25129 19.2511 11.1427 19.0802 12.8749 18.3776C14.607 17.675 16.1023 16.4722 17.1714 14.9214C18.2405 13.3707 18.8356 11.5415 18.8813 9.66521C18.94 7.15003 18.0093 4.72975 16.2934 2.93543C14.5775 1.14111 12.2165 0.119329 9.72866 0.094273ZM9.61026 4.95427C10.1883 4.95944 10.7492 5.13806 11.2216 5.46748C11.694 5.79689 12.0568 6.26227 12.2639 6.80456C12.471 7.34685 12.513 7.94162 12.3847 8.51344C12.2564 9.08526 11.9636 9.60835 11.5433 10.0164C11.123 10.4244 10.5942 10.6989 10.024 10.8052C9.45386 10.9115 8.86796 10.8447 8.34065 10.6132C7.81334 10.3818 7.36839 9.99625 7.06223 9.5054C6.75608 9.01455 6.60253 8.44055 6.62104 7.85622C6.64746 7.07822 6.97608 6.33726 7.53567 5.79398C8.09526 5.25071 8.84071 4.94889 9.61043 4.95396L9.61026 4.95427ZM9.31369 17.115C7.5988 17.1022 5.95105 16.487 4.65269 15.3748C6.03241 13.9013 7.69006 13.0884 9.41185 13.104C11.1336 13.1197 12.772 13.941 14.0579 15.4596C12.7057 16.5477 11.0287 17.1328 9.31392 17.1146L9.31369 17.115Z" fill="#280948"/>
</svg>
