<svg width="17" height="18" viewBox="0 0 17 18" fill="none" xmlns="http://www.w3.org/2000/svg">
<path d="M10.4423 0.812257C10.5121 0.812125 10.5812 0.826563 10.6458 0.854746C10.7103 0.882929 10.769 0.924305 10.8184 0.976507L16.0778 6.54526C16.1774 6.65074 16.2333 6.79379 16.2333 6.94294C16.2333 7.0921 16.1774 7.23515 16.0778 7.34063C15.5678 7.88063 14.9388 8.00213 14.4808 8.00213C14.2928 8.00213 14.1249 7.98188 13.9921 7.95826L10.6622 11.484C10.7499 11.858 10.8067 12.2393 10.8322 12.6236C10.8811 13.4134 10.7982 14.5215 10.0672 15.2955C9.96759 15.401 9.83248 15.4602 9.69161 15.4602C9.55075 15.4602 9.41564 15.401 9.31602 15.2955L6.31021 12.114L2.92933 15.6938C2.72215 15.9131 1.63415 16.7085 1.42696 16.4891C1.21977 16.2698 1.97096 15.1166 2.17814 14.8984L5.55902 11.3186L2.55427 8.13601C2.45468 8.03052 2.39873 7.88747 2.39873 7.73832C2.39873 7.58916 2.45468 7.44612 2.55427 7.34063C3.28527 6.56663 4.33183 6.47776 5.07771 6.53063C5.44072 6.55756 5.80084 6.61779 6.15402 6.71063L9.4839 3.18601C9.4561 3.01469 9.44189 2.84121 9.4414 2.66738C9.4414 2.18363 9.55615 1.51763 10.0672 0.976507C10.1668 0.871354 10.3016 0.812288 10.4423 0.812257V0.812257ZM10.5719 3.18826V3.18601V3.18826ZM10.5719 3.18601V3.18826C10.6026 3.28722 10.6067 3.39326 10.5838 3.49457C10.5609 3.59587 10.5119 3.68846 10.4423 3.76201L6.68633 7.73776C6.61655 7.81133 6.52882 7.86292 6.43294 7.88676C6.33707 7.9106 6.23682 7.90575 6.1434 7.87276H6.14127L6.1264 7.86826C6.02531 7.83619 5.92326 7.80768 5.8204 7.78276C5.55311 7.71674 5.28133 7.67311 5.00758 7.65226C4.55921 7.62076 4.11933 7.66126 3.75915 7.82101L9.61352 14.0186C9.76333 13.6361 9.80158 13.1715 9.77183 12.6968C9.74477 12.2948 9.67636 11.8972 9.56783 11.511L9.56358 11.4964V11.4953C9.53221 11.3962 9.52752 11.2898 9.55004 11.1881C9.57256 11.0863 9.6214 10.9933 9.69108 10.9193L13.4481 6.94238C13.5204 6.86531 13.6123 6.81208 13.7126 6.78912C13.8129 6.76616 13.9174 6.77446 14.0133 6.81301L14.1153 6.83776C14.2078 6.85688 14.3363 6.87601 14.4808 6.87601C14.602 6.87601 14.7252 6.86363 14.8453 6.83101L10.5475 2.28151C10.5166 2.40863 10.505 2.54026 10.505 2.66738C10.5055 2.84219 10.5276 3.01617 10.5708 3.18488L10.5719 3.18601Z" fill="#280948"/>
</svg>
