<svg width="25" height="24" viewBox="0 0 25 24" fill="none" xmlns="http://www.w3.org/2000/svg">
<g clip-path="url(#clip0_669_3667)">
<g clip-path="url(#clip1_669_3667)">
<path d="M23.8301 0.17986C23.9532 0.284954 24.039 0.427059 24.0747 0.584947C24.1104 0.742835 24.094 0.908032 24.0281 1.05586C21.7331 6.20086 16.9136 13.3109 13.3856 17.0159C12.3967 18.0523 11.1771 18.8407 9.82606 19.3169C9.79906 19.6574 9.73606 20.1239 9.58606 20.6189C9.28456 21.6074 8.58556 22.8374 7.02406 23.2289C5.51181 23.589 3.94459 23.6562 2.40706 23.4269C2.12116 23.3817 1.83928 23.314 1.56406 23.2244C1.30944 23.1469 1.07211 23.0211 0.865059 22.8539C0.728515 22.7377 0.623301 22.5892 0.559059 22.4219C0.479436 22.2071 0.481572 21.9706 0.565059 21.7574C0.707559 21.3899 1.03906 21.1874 1.25656 21.0794C1.84756 20.7839 2.19406 20.3999 2.55706 19.8404C2.69956 19.6244 2.83306 19.3949 2.98756 19.1324L3.16306 18.8354C3.38956 18.4529 3.65206 18.0254 3.98206 17.5634C4.77406 16.4549 5.78356 16.1759 6.60106 16.2194C6.79006 16.2299 6.96556 16.2569 7.12306 16.2914C7.21606 16.0334 7.33606 15.7214 7.48006 15.3794C7.87156 14.4509 8.46706 13.2509 9.26056 12.2759C12.5246 8.27086 18.5306 2.96686 22.9361 0.11986C23.0717 0.0323193 23.2319 -0.00912566 23.393 0.00168398C23.5541 0.0124936 23.7073 0.0749809 23.8301 0.17986ZM7.15006 17.8679C6.95101 17.7813 6.73825 17.7305 6.52156 17.7179C6.15256 17.6984 5.66206 17.7929 5.20306 18.4364C4.90756 18.8489 4.67056 19.2344 4.45306 19.6019L4.29556 19.8674C4.13656 20.1389 3.97606 20.4104 3.81556 20.6594C3.51178 21.1516 3.12625 21.5883 2.67556 21.9509C3.71056 22.1189 5.27956 22.1174 6.66106 21.7709C7.49956 21.5624 7.92556 20.9174 8.15056 20.1809C8.25917 19.815 8.32264 19.4372 8.33956 19.0559L7.15006 17.8679ZM9.31006 17.9069C9.49006 17.8469 9.72556 17.7569 9.99706 17.6324C10.8612 17.2315 11.6422 16.6718 12.2996 15.9824C15.1496 12.9884 18.9176 7.62736 21.3776 3.03586C17.4926 5.92636 13.0286 10.0259 10.4246 13.2239C9.76156 14.0384 9.23206 15.0884 8.86156 15.9629C8.68006 16.3949 8.54056 16.7729 8.44906 17.0429V17.0444L9.31156 17.9069H9.31006ZM1.85056 22.4669L1.86106 22.4594C1.85783 22.4618 1.85431 22.4638 1.85056 22.4654V22.4669ZM7.22356 17.9024L7.22656 17.9039H7.22356V17.9024Z" fill="white"/>
</g>
</g>
<defs>
<clipPath id="clip0_669_3667">
<rect width="24" height="24" fill="white" transform="translate(0.0925293)"/>
</clipPath>
<clipPath id="clip1_669_3667">
<rect width="24" height="24" fill="white" transform="translate(0.0925293)"/>
</clipPath>
</defs>
</svg>
