<svg width="30" height="30" viewBox="0 0 30 30" fill="none" xmlns="http://www.w3.org/2000/svg">
<path fill-rule="evenodd" clip-rule="evenodd" d="M10.8841 1.15446C10.6079 1.15446 10.3841 1.37832 10.3841 1.65446V28.3468C10.3841 28.6229 10.6079 28.8468 10.8841 28.8468H13.3456C13.6217 28.8468 13.8456 28.6229 13.8456 28.3468V1.65446C13.8456 1.37832 13.6217 1.15446 13.3456 1.15446H10.8841ZM3.96098 17.3083C3.68483 17.3083 3.46098 17.5322 3.46098 17.8083V28.3468C3.46098 28.6229 3.68483 28.8468 3.96097 28.8468H6.42251C6.69866 28.8468 6.92251 28.6229 6.92251 28.3468V17.8083C6.92251 17.5322 6.69866 17.3083 6.42251 17.3083H3.96098ZM24.2302 6.26985C24.2302 5.99371 24.4541 5.76985 24.7302 5.76985H27.1917C27.4679 5.76985 27.6917 5.9937 27.6917 6.26985V28.3468C27.6917 28.6229 27.4679 28.8468 27.1917 28.8468H24.7302C24.4541 28.8468 24.2302 28.6229 24.2302 28.3468V6.26985ZM17.8071 12.6929C17.531 12.6929 17.3071 12.9168 17.3071 13.1929V28.3468C17.3071 28.6229 17.531 28.8468 17.8071 28.8468H20.2687C20.5448 28.8468 20.7687 28.6229 20.7687 28.3468V13.1929C20.7687 12.9168 20.5448 12.6929 20.2687 12.6929H17.8071Z" fill="white"/>
</svg>
