<svg width="30" height="30" viewBox="0 0 30 30" fill="none" xmlns="http://www.w3.org/2000/svg">
<path fill-rule="evenodd" clip-rule="evenodd" d="M10.884 1.15446C10.6079 1.15446 10.384 1.37832 10.384 1.65446V28.3468C10.384 28.6229 10.6079 28.8468 10.884 28.8468H13.3456C13.6217 28.8468 13.8456 28.6229 13.8456 28.3468V1.65446C13.8456 1.37832 13.6217 1.15446 13.3456 1.15446H10.884ZM3.96094 17.3083C3.6848 17.3083 3.46094 17.5322 3.46094 17.8083V28.3468C3.46094 28.6229 3.68479 28.8468 3.96094 28.8468H6.42248C6.69862 28.8468 6.92248 28.6229 6.92248 28.3468V17.8083C6.92248 17.5322 6.69862 17.3083 6.42248 17.3083H3.96094ZM24.2302 6.26985C24.2302 5.99371 24.454 5.76985 24.7302 5.76985H27.1917C27.4678 5.76985 27.6917 5.99371 27.6917 6.26985V28.3468C27.6917 28.6229 27.4678 28.8468 27.1917 28.8468H24.7302C24.454 28.8468 24.2302 28.6229 24.2302 28.3468V6.26985ZM17.8071 12.6929C17.5309 12.6929 17.3071 12.9168 17.3071 13.1929V28.3468C17.3071 28.6229 17.5309 28.8468 17.8071 28.8468H20.2686C20.5448 28.8468 20.7686 28.6229 20.7686 28.3468V13.1929C20.7686 12.9168 20.5448 12.6929 20.2686 12.6929H17.8071Z" fill="white" fill-opacity="0.6"/>
</svg>
