<svg width="439" height="228" viewBox="0 0 439 228" fill="none" xmlns="http://www.w3.org/2000/svg">
<path opacity="0.7" d="M29.844 25.308H22.278L20.978 29H17.884L24.358 10.904H27.79L34.264 29H31.144L29.844 25.308ZM29.012 22.89L26.074 14.492L23.11 22.89H29.012ZM40.0429 16.78C40.5456 16.1213 41.2302 15.5667 42.0969 15.116C42.9636 14.6653 43.9429 14.44 45.0349 14.44C46.2829 14.44 47.4182 14.752 48.4409 15.376C49.4809 15.9827 50.2956 16.8407 50.8849 17.95C51.4742 19.0593 51.7689 20.3333 51.7689 21.772C51.7689 23.2107 51.4742 24.502 50.8849 25.646C50.2956 26.7727 49.4809 27.6567 48.4409 28.298C47.4182 28.922 46.2829 29.234 45.0349 29.234C43.9429 29.234 42.9722 29.0173 42.1229 28.584C41.2736 28.1333 40.5802 27.5787 40.0429 26.92V35.812H37.0789V14.674H40.0429V16.78ZM48.7529 21.772C48.7529 20.784 48.5449 19.9347 48.1289 19.224C47.7302 18.496 47.1929 17.95 46.5169 17.586C45.8582 17.2047 45.1476 17.014 44.3849 17.014C43.6396 17.014 42.9289 17.2047 42.2529 17.586C41.5942 17.9673 41.0569 18.522 40.6409 19.25C40.2422 19.978 40.0429 20.836 40.0429 21.824C40.0429 22.812 40.2422 23.6787 40.6409 24.424C41.0569 25.152 41.5942 25.7067 42.2529 26.088C42.9289 26.4693 43.6396 26.66 44.3849 26.66C45.1476 26.66 45.8582 26.4693 46.5169 26.088C47.1929 25.6893 47.7302 25.1173 48.1289 24.372C48.5449 23.6267 48.7529 22.76 48.7529 21.772ZM57.664 16.754C58.0973 16.026 58.6693 15.4627 59.38 15.064C60.108 14.648 60.966 14.44 61.954 14.44V17.508H61.2C60.0387 17.508 59.1547 17.8027 58.548 18.392C57.9587 18.9813 57.664 20.004 57.664 21.46V29H54.7V14.674H57.664V16.754ZM66.1865 12.776C65.6492 12.776 65.1985 12.594 64.8345 12.23C64.4705 11.866 64.2885 11.4153 64.2885 10.878C64.2885 10.3407 64.4705 9.89 64.8345 9.526C65.1985 9.162 65.6492 8.98 66.1865 8.98C66.7065 8.98 67.1485 9.162 67.5125 9.526C67.8765 9.89 68.0585 10.3407 68.0585 10.878C68.0585 11.4153 67.8765 11.866 67.5125 12.23C67.1485 12.594 66.7065 12.776 66.1865 12.776ZM67.6425 14.674V29H64.6785V14.674H67.6425ZM74.498 9.76V29H71.534V9.76H74.498ZM84.3634 12.75V10.046H89.7714V29H86.7814V12.75H84.3634ZM93.4532 12.75V10.046H98.8612V29H95.8712V12.75H93.4532ZM106.573 25.438L103.427 32.614H101.503L103.349 25.438H106.573ZM117.165 24.97C118.829 23.5313 120.137 22.3527 121.091 21.434C122.061 20.498 122.867 19.5273 123.509 18.522C124.15 17.5167 124.471 16.5113 124.471 15.506C124.471 14.466 124.219 13.6513 123.717 13.062C123.231 12.4727 122.46 12.178 121.403 12.178C120.38 12.178 119.583 12.5073 119.011 13.166C118.456 13.8073 118.161 14.674 118.127 15.766H115.267C115.319 13.79 115.908 12.282 117.035 11.242C118.179 10.1847 119.626 9.656 121.377 9.656C123.266 9.656 124.739 10.176 125.797 11.216C126.871 12.256 127.409 13.6427 127.409 15.376C127.409 16.624 127.088 17.8287 126.447 18.99C125.823 20.134 125.069 21.1653 124.185 22.084C123.318 22.9853 122.209 24.034 120.857 25.23L119.687 26.27H127.929V28.74H115.293V26.582L117.165 24.97ZM130.533 19.276C130.533 16.2773 131.035 13.9373 132.041 12.256C133.063 10.5573 134.814 9.708 137.293 9.708C139.771 9.708 141.513 10.5573 142.519 12.256C143.541 13.9373 144.053 16.2773 144.053 19.276C144.053 22.3093 143.541 24.684 142.519 26.4C141.513 28.0987 139.771 28.948 137.293 28.948C134.814 28.948 133.063 28.0987 132.041 26.4C131.035 24.684 130.533 22.3093 130.533 19.276ZM141.141 19.276C141.141 17.872 141.045 16.6847 140.855 15.714C140.681 14.7433 140.317 13.9547 139.763 13.348C139.208 12.724 138.385 12.412 137.293 12.412C136.201 12.412 135.377 12.724 134.823 13.348C134.268 13.9547 133.895 14.7433 133.705 15.714C133.531 16.6847 133.445 17.872 133.445 19.276C133.445 20.732 133.531 21.954 133.705 22.942C133.878 23.93 134.242 24.7273 134.797 25.334C135.369 25.9407 136.201 26.244 137.293 26.244C138.385 26.244 139.208 25.9407 139.763 25.334C140.335 24.7273 140.707 23.93 140.881 22.942C141.054 21.954 141.141 20.732 141.141 19.276ZM148.827 24.97C150.491 23.5313 151.8 22.3527 152.753 21.434C153.724 20.498 154.53 19.5273 155.171 18.522C155.812 17.5167 156.133 16.5113 156.133 15.506C156.133 14.466 155.882 13.6513 155.379 13.062C154.894 12.4727 154.122 12.178 153.065 12.178C152.042 12.178 151.245 12.5073 150.673 13.166C150.118 13.8073 149.824 14.674 149.789 15.766H146.929C146.981 13.79 147.57 12.282 148.697 11.242C149.841 10.1847 151.288 9.656 153.039 9.656C154.928 9.656 156.402 10.176 157.459 11.216C158.534 12.256 159.071 13.6427 159.071 15.376C159.071 16.624 158.75 17.8287 158.109 18.99C157.485 20.134 156.731 21.1653 155.847 22.084C154.98 22.9853 153.871 24.034 152.519 25.23L151.349 26.27H159.591V28.74H146.955V26.582L148.827 24.97ZM161.805 12.75V10.046H167.213V29H164.223V12.75H161.805Z" fill="#280948" fill-opacity="0.65"/>
<path d="M40.76 54.08V58.6H33.32V82H27.72V58.6H20.28V54.08H40.76ZM54.6859 82.36C52.5526 82.36 50.6326 81.8933 48.9259 80.96C47.2193 80 45.8726 78.6533 44.8859 76.92C43.9259 75.1867 43.4459 73.1867 43.4459 70.92C43.4459 68.6533 43.9393 66.6533 44.9259 64.92C45.9393 63.1867 47.3126 61.8533 49.0459 60.92C50.7793 59.96 52.7126 59.48 54.8459 59.48C56.9793 59.48 58.9126 59.96 60.6459 60.92C62.3793 61.8533 63.7393 63.1867 64.7259 64.92C65.7393 66.6533 66.2459 68.6533 66.2459 70.92C66.2459 73.1867 65.7259 75.1867 64.6859 76.92C63.6726 78.6533 62.2859 80 60.5259 80.96C58.7926 81.8933 56.8459 82.36 54.6859 82.36ZM54.6859 77.48C55.6993 77.48 56.6459 77.24 57.5259 76.76C58.4326 76.2533 59.1526 75.5067 59.6859 74.52C60.2193 73.5333 60.4859 72.3333 60.4859 70.92C60.4859 68.8133 59.9259 67.2 58.8059 66.08C57.7126 64.9333 56.3659 64.36 54.7659 64.36C53.1659 64.36 51.8193 64.9333 50.7259 66.08C49.6593 67.2 49.1259 68.8133 49.1259 70.92C49.1259 73.0267 49.6459 74.6533 50.6859 75.8C51.7526 76.92 53.0859 77.48 54.6859 77.48ZM68.9137 70.84C68.9137 68.6 69.3537 66.6133 70.2337 64.88C71.1404 63.1467 72.3671 61.8133 73.9138 60.88C75.4604 59.9467 77.1804 59.48 79.0738 59.48C80.5138 59.48 81.8871 59.8 83.1938 60.44C84.5004 61.0533 85.5404 61.88 86.3138 62.92V52.4H91.9938V82H86.3138V78.72C85.6204 79.8133 84.6471 80.6933 83.3938 81.36C82.1404 82.0267 80.6871 82.36 79.0338 82.36C77.1671 82.36 75.4604 81.88 73.9138 80.92C72.3671 79.96 71.1404 78.6133 70.2337 76.88C69.3537 75.12 68.9137 73.1067 68.9137 70.84ZM86.3538 70.92C86.3538 69.56 86.0871 68.4 85.5538 67.44C85.0204 66.4533 84.3004 65.7067 83.3938 65.2C82.4871 64.6667 81.5138 64.4 80.4738 64.4C79.4338 64.4 78.4738 64.6533 77.5938 65.16C76.7138 65.6667 75.9938 66.4133 75.4338 67.4C74.9004 68.36 74.6338 69.5067 74.6338 70.84C74.6338 72.1733 74.9004 73.3467 75.4338 74.36C75.9938 75.3467 76.7138 76.1067 77.5938 76.64C78.5004 77.1733 79.4604 77.44 80.4738 77.44C81.5138 77.44 82.4871 77.1867 83.3938 76.68C84.3004 76.1467 85.0204 75.4 85.5538 74.44C86.0871 73.4533 86.3538 72.28 86.3538 70.92ZM96.0231 70.84C96.0231 68.6 96.4631 66.6133 97.3431 64.88C98.2498 63.1467 99.4631 61.8133 100.983 60.88C102.53 59.9467 104.25 59.48 106.143 59.48C107.796 59.48 109.236 59.8133 110.463 60.48C111.716 61.1467 112.716 61.9867 113.463 63V59.84H119.103V82H113.463V78.76C112.743 79.8 111.743 80.6667 110.463 81.36C109.21 82.0267 107.756 82.36 106.103 82.36C104.236 82.36 102.53 81.88 100.983 80.92C99.4631 79.96 98.2498 78.6133 97.3431 76.88C96.4631 75.12 96.0231 73.1067 96.0231 70.84ZM113.463 70.92C113.463 69.56 113.196 68.4 112.663 67.44C112.13 66.4533 111.41 65.7067 110.503 65.2C109.596 64.6667 108.623 64.4 107.583 64.4C106.543 64.4 105.583 64.6533 104.703 65.16C103.823 65.6667 103.103 66.4133 102.543 67.4C102.01 68.36 101.743 69.5067 101.743 70.84C101.743 72.1733 102.01 73.3467 102.543 74.36C103.103 75.3467 103.823 76.1067 104.703 76.64C105.61 77.1733 106.57 77.44 107.583 77.44C108.623 77.44 109.596 77.1867 110.503 76.68C111.41 76.1467 112.13 75.4 112.663 74.44C113.196 73.4533 113.463 72.28 113.463 70.92ZM145.773 59.84L132.053 92.48H126.093L130.893 81.44L122.013 59.84H128.293L134.013 75.32L139.813 59.84H145.773Z" fill="#280948"/>
<g clip-path="url(#clip0_150_129)">
<path d="M392 41.0348H412C416.42 41.0348 420 44.6148 420 49.0348V69.0348C420 73.4548 416.42 77.0348 412 77.0348H392C387.58 77.0348 384 73.4548 384 69.0348V49.0348C384 44.6148 387.58 41.0348 392 41.0348Z" fill="#667EEA"/>
<rect x="408" y="58.9342" width="2" height="12" rx="1" transform="rotate(126.602 408 58.9342)" fill="white"/>
<rect x="398.583" y="67.034" width="2" height="12" rx="1" transform="rotate(-128.302 398.583 67.034)" fill="white"/>
</g>
<g clip-path="url(#clip1_150_129)">
<path d="M352 77.0332H332C327.58 77.0332 324 73.4532 324 69.0332V49.0332C324 44.6132 327.58 41.0332 332 41.0332H352C356.42 41.0332 360 44.6132 360 49.0332V69.0332C360 73.4532 356.42 77.0332 352 77.0332Z" fill="#667EEA"/>
<rect x="336" y="59.1338" width="2" height="12" rx="1" transform="rotate(-53.398 336 59.1338)" fill="white"/>
<rect x="345.417" y="51.034" width="2" height="12" rx="1" transform="rotate(51.698 345.417 51.034)" fill="white"/>
</g>
<path d="M24.5681 128.126C23.7401 128.126 22.9961 127.982 22.3361 127.694C21.6881 127.394 21.1781 126.986 20.8061 126.47C20.4341 125.942 20.2421 125.336 20.2301 124.652H21.9761C22.0361 125.24 22.2761 125.738 22.6961 126.146C23.1281 126.542 23.7521 126.74 24.5681 126.74C25.3481 126.74 25.9601 126.548 26.4041 126.164C26.8601 125.768 27.0881 125.264 27.0881 124.652C27.0881 124.172 26.9561 123.782 26.6921 123.482C26.4281 123.182 26.0981 122.954 25.7021 122.798C25.3061 122.642 24.7721 122.474 24.1001 122.294C23.2721 122.078 22.6061 121.862 22.1021 121.646C21.6101 121.43 21.1841 121.094 20.8241 120.638C20.4761 120.17 20.3021 119.546 20.3021 118.766C20.3021 118.082 20.4761 117.476 20.8241 116.948C21.1721 116.42 21.6581 116.012 22.2821 115.724C22.9181 115.436 23.6441 115.292 24.4601 115.292C25.6361 115.292 26.5961 115.586 27.3401 116.174C28.0961 116.762 28.5221 117.542 28.6181 118.514H26.8181C26.7581 118.034 26.5061 117.614 26.0621 117.254C25.6181 116.882 25.0301 116.696 24.2981 116.696C23.6141 116.696 23.0561 116.876 22.6241 117.236C22.1921 117.584 21.9761 118.076 21.9761 118.712C21.9761 119.168 22.1021 119.54 22.3541 119.828C22.6181 120.116 22.9361 120.338 23.3081 120.494C23.6921 120.638 24.2261 120.806 24.9101 120.998C25.7381 121.226 26.4041 121.454 26.9081 121.682C27.4121 121.898 27.8441 122.24 28.2041 122.708C28.5641 123.164 28.7441 123.788 28.7441 124.58C28.7441 125.192 28.5821 125.768 28.2581 126.308C27.9341 126.848 27.4541 127.286 26.8181 127.622C26.1821 127.958 25.4321 128.126 24.5681 128.126ZM39.9026 118.136V128H38.2646V126.542C37.9526 127.046 37.5146 127.442 36.9506 127.73C36.3986 128.006 35.7866 128.144 35.1146 128.144C34.3466 128.144 33.6566 127.988 33.0446 127.676C32.4326 127.352 31.9466 126.872 31.5866 126.236C31.2386 125.6 31.0646 124.826 31.0646 123.914V118.136H32.6846V123.698C32.6846 124.67 32.9306 125.42 33.4226 125.948C33.9146 126.464 34.5866 126.722 35.4386 126.722C36.3146 126.722 37.0046 126.452 37.5086 125.912C38.0126 125.372 38.2646 124.586 38.2646 123.554V118.136H39.9026ZM47.4742 117.956C48.6742 117.956 49.6462 118.322 50.3902 119.054C51.1342 119.774 51.5062 120.818 51.5062 122.186V128H49.8862V122.42C49.8862 121.436 49.6402 120.686 49.1482 120.17C48.6562 119.642 47.9842 119.378 47.1322 119.378C46.2682 119.378 45.5782 119.648 45.0622 120.188C44.5582 120.728 44.3062 121.514 44.3062 122.546V128H42.6682V118.136H44.3062V119.54C44.6302 119.036 45.0682 118.646 45.6202 118.37C46.1842 118.094 46.8022 117.956 47.4742 117.956Z" fill="#280948"/>
<path opacity="0.3" d="M25.032 162.18C25.1254 160.953 25.5987 159.993 26.452 159.3C27.3054 158.607 28.412 158.26 29.772 158.26C30.6787 158.26 31.4587 158.427 32.112 158.76C32.7787 159.08 33.2787 159.52 33.612 160.08C33.9587 160.64 34.132 161.273 34.132 161.98C34.132 162.807 33.892 163.52 33.412 164.12C32.9454 164.72 32.332 165.107 31.572 165.28V165.38C32.4387 165.593 33.1254 166.013 33.632 166.64C34.1387 167.267 34.392 168.087 34.392 169.1C34.392 169.86 34.2187 170.547 33.872 171.16C33.5254 171.76 33.0054 172.233 32.312 172.58C31.6187 172.927 30.7854 173.1 29.812 173.1C28.3987 173.1 27.2387 172.733 26.332 172C25.4254 171.253 24.9187 170.2 24.812 168.84H26.572C26.6654 169.64 26.992 170.293 27.552 170.8C28.112 171.307 28.8587 171.56 29.792 171.56C30.7254 171.56 31.432 171.32 31.912 170.84C32.4054 170.347 32.652 169.713 32.652 168.94C32.652 167.94 32.3187 167.22 31.652 166.78C30.9854 166.34 29.9787 166.12 28.632 166.12H28.172V164.6H28.652C29.8787 164.587 30.8054 164.387 31.432 164C32.0587 163.6 32.372 162.987 32.372 162.16C32.372 161.453 32.1387 160.887 31.672 160.46C31.2187 160.033 30.5654 159.82 29.712 159.82C28.8854 159.82 28.2187 160.033 27.712 160.46C27.2054 160.887 26.9054 161.46 26.812 162.18H25.032ZM36.8494 165.62C36.8494 163.327 37.2227 161.54 37.9694 160.26C38.716 158.967 40.0227 158.32 41.8894 158.32C43.7427 158.32 45.0427 158.967 45.7894 160.26C46.536 161.54 46.9094 163.327 46.9094 165.62C46.9094 167.953 46.536 169.767 45.7894 171.06C45.0427 172.353 43.7427 173 41.8894 173C40.0227 173 38.716 172.353 37.9694 171.06C37.2227 169.767 36.8494 167.953 36.8494 165.62ZM45.1094 165.62C45.1094 164.46 45.0294 163.48 44.8694 162.68C44.7227 161.867 44.4094 161.213 43.9294 160.72C43.4627 160.227 42.7827 159.98 41.8894 159.98C40.9827 159.98 40.2894 160.227 39.8094 160.72C39.3427 161.213 39.0294 161.867 38.8694 162.68C38.7227 163.48 38.6494 164.46 38.6494 165.62C38.6494 166.82 38.7227 167.827 38.8694 168.64C39.0294 169.453 39.3427 170.107 39.8094 170.6C40.2894 171.093 40.9827 171.34 41.8894 171.34C42.7827 171.34 43.4627 171.093 43.9294 170.6C44.4094 170.107 44.7227 169.453 44.8694 168.64C45.0294 167.827 45.1094 166.82 45.1094 165.62Z" fill="#280948"/>
<path d="M38.9523 207.98C38.659 206.5 37.7457 205.76 36.2123 205.76C35.0257 205.76 34.139 206.22 33.5523 207.14C32.9657 208.047 32.679 209.547 32.6923 211.64C32.999 210.947 33.5057 210.407 34.2123 210.02C34.9323 209.62 35.7323 209.42 36.6123 209.42C37.9857 209.42 39.079 209.847 39.8923 210.7C40.719 211.553 41.1323 212.733 41.1323 214.24C41.1323 215.147 40.9523 215.96 40.5923 216.68C40.2457 217.4 39.7123 217.973 38.9923 218.4C38.2857 218.827 37.4257 219.04 36.4123 219.04C35.039 219.04 33.9657 218.733 33.1923 218.12C32.419 217.507 31.879 216.66 31.5723 215.58C31.2657 214.5 31.1123 213.167 31.1123 211.58C31.1123 206.687 32.819 204.24 36.2323 204.24C37.539 204.24 38.5657 204.593 39.3123 205.3C40.059 206.007 40.499 206.9 40.6323 207.98H38.9523ZM36.2323 210.96C35.659 210.96 35.119 211.08 34.6123 211.32C34.1057 211.547 33.6923 211.9 33.3723 212.38C33.0657 212.847 32.9123 213.42 32.9123 214.1C32.9123 215.113 33.2057 215.94 33.7923 216.58C34.379 217.207 35.219 217.52 36.3123 217.52C37.2457 217.52 37.9857 217.233 38.5323 216.66C39.0923 216.073 39.3723 215.287 39.3723 214.3C39.3723 213.26 39.1057 212.447 38.5723 211.86C38.039 211.26 37.259 210.96 36.2323 210.96Z" fill="#280948"/>
<path d="M95.3464 115.544V128H93.7084V118.712L89.5684 128H88.4164L84.2584 118.694V128H82.6204V115.544H84.3844L88.9924 125.84L93.6004 115.544H95.3464ZM102.426 128.162C101.502 128.162 100.662 127.952 99.9063 127.532C99.1623 127.112 98.5743 126.518 98.1423 125.75C97.7223 124.97 97.5123 124.07 97.5123 123.05C97.5123 122.042 97.7283 121.154 98.1603 120.386C98.6043 119.606 99.2043 119.012 99.9603 118.604C100.716 118.184 101.562 117.974 102.498 117.974C103.434 117.974 104.28 118.184 105.036 118.604C105.792 119.012 106.386 119.6 106.818 120.368C107.262 121.136 107.484 122.03 107.484 123.05C107.484 124.07 107.256 124.97 106.8 125.75C106.356 126.518 105.75 127.112 104.982 127.532C104.214 127.952 103.362 128.162 102.426 128.162ZM102.426 126.722C103.014 126.722 103.566 126.584 104.082 126.308C104.598 126.032 105.012 125.618 105.324 125.066C105.648 124.514 105.81 123.842 105.81 123.05C105.81 122.258 105.654 121.586 105.342 121.034C105.03 120.482 104.622 120.074 104.118 119.81C103.614 119.534 103.068 119.396 102.48 119.396C101.88 119.396 101.328 119.534 100.824 119.81C100.332 120.074 99.9363 120.482 99.6363 121.034C99.3363 121.586 99.1863 122.258 99.1863 123.05C99.1863 123.854 99.3303 124.532 99.6183 125.084C99.9183 125.636 100.314 126.05 100.806 126.326C101.298 126.59 101.838 126.722 102.426 126.722ZM114.444 117.956C115.644 117.956 116.616 118.322 117.36 119.054C118.104 119.774 118.476 120.818 118.476 122.186V128H116.856V122.42C116.856 121.436 116.61 120.686 116.118 120.17C115.626 119.642 114.954 119.378 114.102 119.378C113.238 119.378 112.548 119.648 112.032 120.188C111.528 120.728 111.276 121.514 111.276 122.546V128H109.638V118.136H111.276V119.54C111.6 119.036 112.038 118.646 112.59 118.37C113.154 118.094 113.772 117.956 114.444 117.956Z" fill="#280948"/>
<path opacity="0.3" d="M92.6082 162.18C92.7015 160.953 93.1749 159.993 94.0282 159.3C94.8815 158.607 95.9882 158.26 97.3482 158.26C98.2549 158.26 99.0349 158.427 99.6882 158.76C100.355 159.08 100.855 159.52 101.188 160.08C101.535 160.64 101.708 161.273 101.708 161.98C101.708 162.807 101.468 163.52 100.988 164.12C100.522 164.72 99.9082 165.107 99.1482 165.28V165.38C100.015 165.593 100.702 166.013 101.208 166.64C101.715 167.267 101.968 168.087 101.968 169.1C101.968 169.86 101.795 170.547 101.448 171.16C101.102 171.76 100.582 172.233 99.8882 172.58C99.1949 172.927 98.3615 173.1 97.3882 173.1C95.9749 173.1 94.8149 172.733 93.9082 172C93.0015 171.253 92.4949 170.2 92.3882 168.84H94.1482C94.2415 169.64 94.5682 170.293 95.1282 170.8C95.6882 171.307 96.4349 171.56 97.3682 171.56C98.3015 171.56 99.0082 171.32 99.4882 170.84C99.9815 170.347 100.228 169.713 100.228 168.94C100.228 167.94 99.8949 167.22 99.2282 166.78C98.5615 166.34 97.5549 166.12 96.2082 166.12H95.7482V164.6H96.2282C97.4549 164.587 98.3815 164.387 99.0082 164C99.6349 163.6 99.9482 162.987 99.9482 162.16C99.9482 161.453 99.7149 160.887 99.2482 160.46C98.7949 160.033 98.1415 159.82 97.2882 159.82C96.4615 159.82 95.7949 160.033 95.2882 160.46C94.7815 160.887 94.4815 161.46 94.3882 162.18H92.6082ZM103.946 160.2V158.54H107.706V173H105.866V160.2H103.946Z" fill="#280948"/>
<path d="M105.181 205.96L99.621 219H97.781L103.421 206.14H95.701V204.58H105.181V205.96Z" fill="#280948"/>
<path d="M157.401 115.454V116.786H153.981V128H152.343V116.786H148.905V115.454H157.401ZM168.165 118.136V128H166.527V126.542C166.215 127.046 165.777 127.442 165.213 127.73C164.661 128.006 164.049 128.144 163.377 128.144C162.609 128.144 161.919 127.988 161.307 127.676C160.695 127.352 160.209 126.872 159.849 126.236C159.501 125.6 159.327 124.826 159.327 123.914V118.136H160.947V123.698C160.947 124.67 161.193 125.42 161.685 125.948C162.177 126.464 162.849 126.722 163.701 126.722C164.577 126.722 165.267 126.452 165.771 125.912C166.275 125.372 166.527 124.586 166.527 123.554V118.136H168.165ZM179.931 122.69C179.931 123.002 179.913 123.332 179.877 123.68H171.993C172.053 124.652 172.383 125.414 172.983 125.966C173.595 126.506 174.333 126.776 175.197 126.776C175.905 126.776 176.493 126.614 176.961 126.29C177.441 125.954 177.777 125.51 177.969 124.958H179.733C179.469 125.906 178.941 126.68 178.149 127.28C177.357 127.868 176.373 128.162 175.197 128.162C174.261 128.162 173.421 127.952 172.677 127.532C171.945 127.112 171.369 126.518 170.949 125.75C170.529 124.97 170.319 124.07 170.319 123.05C170.319 122.03 170.523 121.136 170.931 120.368C171.339 119.6 171.909 119.012 172.641 118.604C173.385 118.184 174.237 117.974 175.197 117.974C176.133 117.974 176.961 118.178 177.681 118.586C178.401 118.994 178.953 119.558 179.337 120.278C179.733 120.986 179.931 121.79 179.931 122.69ZM178.239 122.348C178.239 121.724 178.101 121.19 177.825 120.746C177.549 120.29 177.171 119.948 176.691 119.72C176.223 119.48 175.701 119.36 175.125 119.36C174.297 119.36 173.589 119.624 173.001 120.152C172.425 120.68 172.095 121.412 172.011 122.348H178.239Z" fill="#280948"/>
<path d="M162.057 160.2V158.54H165.817V173H163.977V160.2H162.057Z" fill="#280948"/>
<path d="M162.071 211.48C161.325 211.187 160.751 210.76 160.351 210.2C159.951 209.64 159.751 208.96 159.751 208.16C159.751 207.44 159.931 206.793 160.291 206.22C160.651 205.633 161.185 205.173 161.891 204.84C162.611 204.493 163.478 204.32 164.491 204.32C165.505 204.32 166.365 204.493 167.071 204.84C167.791 205.173 168.331 205.633 168.691 206.22C169.065 206.793 169.251 207.44 169.251 208.16C169.251 208.933 169.045 209.613 168.631 210.2C168.218 210.773 167.651 211.2 166.931 211.48C167.758 211.733 168.411 212.18 168.891 212.82C169.385 213.447 169.631 214.207 169.631 215.1C169.631 215.967 169.418 216.727 168.991 217.38C168.565 218.02 167.958 218.52 167.171 218.88C166.398 219.227 165.505 219.4 164.491 219.4C163.478 219.4 162.585 219.227 161.811 218.88C161.051 218.52 160.458 218.02 160.031 217.38C159.605 216.727 159.391 215.967 159.391 215.1C159.391 214.207 159.631 213.44 160.111 212.8C160.591 212.16 161.245 211.72 162.071 211.48ZM167.491 208.38C167.491 207.567 167.225 206.94 166.691 206.5C166.158 206.06 165.425 205.84 164.491 205.84C163.571 205.84 162.845 206.06 162.311 206.5C161.778 206.94 161.511 207.573 161.511 208.4C161.511 209.147 161.785 209.747 162.331 210.2C162.891 210.653 163.611 210.88 164.491 210.88C165.385 210.88 166.105 210.653 166.651 210.2C167.211 209.733 167.491 209.127 167.491 208.38ZM164.491 212.28C163.505 212.28 162.698 212.513 162.071 212.98C161.445 213.433 161.131 214.12 161.131 215.04C161.131 215.893 161.431 216.58 162.031 217.1C162.645 217.62 163.465 217.88 164.491 217.88C165.518 217.88 166.331 217.62 166.931 217.1C167.531 216.58 167.831 215.893 167.831 215.04C167.831 214.147 167.525 213.467 166.911 213C166.298 212.52 165.491 212.28 164.491 212.28Z" fill="#280948"/>
<path d="M226.211 115.454L222.575 128H220.739L217.823 117.902L214.799 128L212.981 128.018L209.471 115.454H211.217L213.953 126.092L216.977 115.454H218.813L221.693 126.056L224.447 115.454H226.211ZM237.003 122.69C237.003 123.002 236.985 123.332 236.949 123.68H229.065C229.125 124.652 229.455 125.414 230.055 125.966C230.667 126.506 231.405 126.776 232.269 126.776C232.977 126.776 233.565 126.614 234.033 126.29C234.513 125.954 234.849 125.51 235.041 124.958H236.805C236.541 125.906 236.013 126.68 235.221 127.28C234.429 127.868 233.445 128.162 232.269 128.162C231.333 128.162 230.493 127.952 229.749 127.532C229.017 127.112 228.441 126.518 228.021 125.75C227.601 124.97 227.391 124.07 227.391 123.05C227.391 122.03 227.595 121.136 228.003 120.368C228.411 119.6 228.981 119.012 229.713 118.604C230.457 118.184 231.309 117.974 232.269 117.974C233.205 117.974 234.033 118.178 234.753 118.586C235.473 118.994 236.025 119.558 236.409 120.278C236.805 120.986 237.003 121.79 237.003 122.69ZM235.311 122.348C235.311 121.724 235.173 121.19 234.897 120.746C234.621 120.29 234.243 119.948 233.763 119.72C233.295 119.48 232.773 119.36 232.197 119.36C231.369 119.36 230.661 119.624 230.073 120.152C229.497 120.68 229.167 121.412 229.083 122.348H235.311ZM238.553 123.032C238.553 122.024 238.757 121.142 239.165 120.386C239.573 119.618 240.131 119.024 240.839 118.604C241.559 118.184 242.363 117.974 243.251 117.974C244.019 117.974 244.733 118.154 245.393 118.514C246.053 118.862 246.557 119.324 246.905 119.9V114.68H248.561V128H246.905V126.146C246.581 126.734 246.101 127.22 245.465 127.604C244.829 127.976 244.085 128.162 243.233 128.162C242.357 128.162 241.559 127.946 240.839 127.514C240.131 127.082 239.573 126.476 239.165 125.696C238.757 124.916 238.553 124.028 238.553 123.032ZM246.905 123.05C246.905 122.306 246.755 121.658 246.455 121.106C246.155 120.554 245.747 120.134 245.231 119.846C244.727 119.546 244.169 119.396 243.557 119.396C242.945 119.396 242.387 119.54 241.883 119.828C241.379 120.116 240.977 120.536 240.677 121.088C240.377 121.64 240.227 122.288 240.227 123.032C240.227 123.788 240.377 124.448 240.677 125.012C240.977 125.564 241.379 125.99 241.883 126.29C242.387 126.578 242.945 126.722 243.557 126.722C244.169 126.722 244.727 126.578 245.231 126.29C245.747 125.99 246.155 125.564 246.455 125.012C246.755 124.448 246.905 123.794 246.905 123.05Z" fill="#280948"/>
<path d="M224.768 171.54C226.461 170.18 227.788 169.067 228.748 168.2C229.708 167.32 230.515 166.407 231.168 165.46C231.835 164.5 232.168 163.56 232.168 162.64C232.168 161.773 231.955 161.093 231.528 160.6C231.115 160.093 230.441 159.84 229.508 159.84C228.601 159.84 227.895 160.127 227.388 160.7C226.895 161.26 226.628 162.013 226.588 162.96H224.828C224.881 161.467 225.335 160.313 226.188 159.5C227.041 158.687 228.141 158.28 229.488 158.28C230.861 158.28 231.948 158.66 232.748 159.42C233.561 160.18 233.968 161.227 233.968 162.56C233.968 163.667 233.635 164.747 232.968 165.8C232.315 166.84 231.568 167.76 230.728 168.56C229.888 169.347 228.815 170.267 227.508 171.32H234.388V172.84H224.768V171.54Z" fill="#280948"/>
<path d="M226.781 215.12C226.915 215.88 227.221 216.467 227.701 216.88C228.195 217.293 228.855 217.5 229.681 217.5C230.788 217.5 231.601 217.067 232.121 216.2C232.655 215.333 232.908 213.873 232.881 211.82C232.601 212.42 232.135 212.893 231.481 213.24C230.828 213.573 230.101 213.74 229.301 213.74C228.408 213.74 227.608 213.56 226.901 213.2C226.208 212.827 225.661 212.287 225.261 211.58C224.861 210.873 224.661 210.02 224.661 209.02C224.661 207.593 225.075 206.447 225.901 205.58C226.728 204.7 227.901 204.26 229.421 204.26C231.288 204.26 232.595 204.867 233.341 206.08C234.101 207.293 234.481 209.1 234.481 211.5C234.481 213.18 234.328 214.567 234.021 215.66C233.728 216.753 233.221 217.587 232.501 218.16C231.795 218.733 230.821 219.02 229.581 219.02C228.221 219.02 227.161 218.653 226.401 217.92C225.641 217.187 225.208 216.253 225.101 215.12H226.781ZM229.601 212.2C230.495 212.2 231.228 211.927 231.801 211.38C232.375 210.82 232.661 210.067 232.661 209.12C232.661 208.12 232.381 207.313 231.821 206.7C231.261 206.087 230.475 205.78 229.461 205.78C228.528 205.78 227.781 206.073 227.221 206.66C226.675 207.247 226.401 208.02 226.401 208.98C226.401 209.953 226.675 210.733 227.221 211.32C227.768 211.907 228.561 212.2 229.601 212.2Z" fill="#280948"/>
<path d="M287.225 115.454V116.786H283.805V128H282.167V116.786H278.729V115.454H287.225ZM294.137 117.956C294.881 117.956 295.553 118.118 296.153 118.442C296.753 118.754 297.221 119.228 297.557 119.864C297.905 120.5 298.079 121.274 298.079 122.186V128H296.459V122.42C296.459 121.436 296.213 120.686 295.721 120.17C295.229 119.642 294.557 119.378 293.705 119.378C292.841 119.378 292.151 119.648 291.635 120.188C291.131 120.728 290.879 121.514 290.879 122.546V128H289.241V114.68H290.879V119.54C291.203 119.036 291.647 118.646 292.211 118.37C292.787 118.094 293.429 117.956 294.137 117.956ZM309.503 118.136V128H307.865V126.542C307.553 127.046 307.115 127.442 306.551 127.73C305.999 128.006 305.387 128.144 304.715 128.144C303.947 128.144 303.257 127.988 302.645 127.676C302.033 127.352 301.547 126.872 301.187 126.236C300.839 125.6 300.665 124.826 300.665 123.914V118.136H302.285V123.698C302.285 124.67 302.531 125.42 303.023 125.948C303.515 126.464 304.187 126.722 305.039 126.722C305.915 126.722 306.605 126.452 307.109 125.912C307.613 125.372 307.865 124.586 307.865 123.554V118.136H309.503Z" fill="#280948"/>
<path d="M289.811 162.18C289.905 160.953 290.378 159.993 291.231 159.3C292.085 158.607 293.191 158.26 294.551 158.26C295.458 158.26 296.238 158.427 296.891 158.76C297.558 159.08 298.058 159.52 298.391 160.08C298.738 160.64 298.911 161.273 298.911 161.98C298.911 162.807 298.671 163.52 298.191 164.12C297.725 164.72 297.111 165.107 296.351 165.28V165.38C297.218 165.593 297.905 166.013 298.411 166.64C298.918 167.267 299.171 168.087 299.171 169.1C299.171 169.86 298.998 170.547 298.651 171.16C298.305 171.76 297.785 172.233 297.091 172.58C296.398 172.927 295.565 173.1 294.591 173.1C293.178 173.1 292.018 172.733 291.111 172C290.205 171.253 289.698 170.2 289.591 168.84H291.351C291.445 169.64 291.771 170.293 292.331 170.8C292.891 171.307 293.638 171.56 294.571 171.56C295.505 171.56 296.211 171.32 296.691 170.84C297.185 170.347 297.431 169.713 297.431 168.94C297.431 167.94 297.098 167.22 296.431 166.78C295.765 166.34 294.758 166.12 293.411 166.12H292.951V164.6H293.431C294.658 164.587 295.585 164.387 296.211 164C296.838 163.6 297.151 162.987 297.151 162.16C297.151 161.453 296.918 160.887 296.451 160.46C295.998 160.033 295.345 159.82 294.491 159.82C293.665 159.82 292.998 160.033 292.491 160.46C291.985 160.887 291.685 161.46 291.591 162.18H289.811Z" fill="#280948"/>
<path d="M285.778 206.2V204.54H289.538V219H287.698V206.2H285.778ZM292.664 211.62C292.664 209.327 293.037 207.54 293.784 206.26C294.53 204.967 295.837 204.32 297.704 204.32C299.557 204.32 300.857 204.967 301.604 206.26C302.35 207.54 302.724 209.327 302.724 211.62C302.724 213.953 302.35 215.767 301.604 217.06C300.857 218.353 299.557 219 297.704 219C295.837 219 294.53 218.353 293.784 217.06C293.037 215.767 292.664 213.953 292.664 211.62ZM300.924 211.62C300.924 210.46 300.844 209.48 300.684 208.68C300.537 207.867 300.224 207.213 299.744 206.72C299.277 206.227 298.597 205.98 297.704 205.98C296.797 205.98 296.104 206.227 295.624 206.72C295.157 207.213 294.844 207.867 294.684 208.68C294.537 209.48 294.464 210.46 294.464 211.62C294.464 212.82 294.537 213.827 294.684 214.64C294.844 215.453 295.157 216.107 295.624 216.6C296.104 217.093 296.797 217.34 297.704 217.34C298.597 217.34 299.277 217.093 299.744 216.6C300.224 216.107 300.537 215.453 300.684 214.64C300.844 213.827 300.924 212.82 300.924 211.62Z" fill="#280948"/>
<path d="M348.416 115.364V117.83H343.268V120.494H347.12V122.888H343.268V128H340.19V115.364H348.416ZM353.112 119.63C353.472 119.078 353.922 118.646 354.462 118.334C355.002 118.01 355.602 117.848 356.262 117.848V121.106H355.416C354.648 121.106 354.072 121.274 353.688 121.61C353.304 121.934 353.112 122.51 353.112 123.338V128H350.034V117.956H353.112V119.63ZM359.281 116.912C358.741 116.912 358.297 116.756 357.949 116.444C357.613 116.12 357.445 115.724 357.445 115.256C357.445 114.776 357.613 114.38 357.949 114.068C358.297 113.744 358.741 113.582 359.281 113.582C359.809 113.582 360.241 113.744 360.577 114.068C360.925 114.38 361.099 114.776 361.099 115.256C361.099 115.724 360.925 116.12 360.577 116.444C360.241 116.756 359.809 116.912 359.281 116.912ZM360.811 117.956V128H357.733V117.956H360.811Z" fill="#280948"/>
<path d="M345.011 169.78V168.4L352.031 158.68H354.211V168.2H356.211V169.78H354.211V173H352.411V169.78H345.011ZM352.491 160.58L347.111 168.2H352.491V160.58Z" fill="#280948"/>
<path d="M343.52 207.58V204.4H349.06V219H345.5V207.58H343.52ZM351.04 207.58V204.4H356.58V219H353.02V207.58H351.04Z" fill="#280948"/>
<path d="M395.721 128.126C394.893 128.126 394.149 127.982 393.489 127.694C392.841 127.394 392.331 126.986 391.959 126.47C391.587 125.942 391.395 125.336 391.383 124.652H393.129C393.189 125.24 393.429 125.738 393.849 126.146C394.281 126.542 394.905 126.74 395.721 126.74C396.501 126.74 397.113 126.548 397.557 126.164C398.013 125.768 398.241 125.264 398.241 124.652C398.241 124.172 398.109 123.782 397.845 123.482C397.581 123.182 397.251 122.954 396.855 122.798C396.459 122.642 395.925 122.474 395.253 122.294C394.425 122.078 393.759 121.862 393.255 121.646C392.763 121.43 392.337 121.094 391.977 120.638C391.629 120.17 391.455 119.546 391.455 118.766C391.455 118.082 391.629 117.476 391.977 116.948C392.325 116.42 392.811 116.012 393.435 115.724C394.071 115.436 394.797 115.292 395.613 115.292C396.789 115.292 397.749 115.586 398.493 116.174C399.249 116.762 399.675 117.542 399.771 118.514H397.971C397.911 118.034 397.659 117.614 397.215 117.254C396.771 116.882 396.183 116.696 395.451 116.696C394.767 116.696 394.209 116.876 393.777 117.236C393.345 117.584 393.129 118.076 393.129 118.712C393.129 119.168 393.255 119.54 393.507 119.828C393.771 120.116 394.089 120.338 394.461 120.494C394.845 120.638 395.379 120.806 396.063 120.998C396.891 121.226 397.557 121.454 398.061 121.682C398.565 121.898 398.997 122.24 399.357 122.708C399.717 123.164 399.897 123.788 399.897 124.58C399.897 125.192 399.735 125.768 399.411 126.308C399.087 126.848 398.607 127.286 397.971 127.622C397.335 127.958 396.585 128.126 395.721 128.126ZM401.696 123.032C401.696 122.024 401.9 121.142 402.308 120.386C402.716 119.618 403.274 119.024 403.982 118.604C404.702 118.184 405.5 117.974 406.376 117.974C407.24 117.974 407.99 118.16 408.626 118.532C409.262 118.904 409.736 119.372 410.048 119.936V118.136H411.704V128H410.048V126.164C409.724 126.74 409.238 127.22 408.59 127.604C407.954 127.976 407.21 128.162 406.358 128.162C405.482 128.162 404.69 127.946 403.982 127.514C403.274 127.082 402.716 126.476 402.308 125.696C401.9 124.916 401.696 124.028 401.696 123.032ZM410.048 123.05C410.048 122.306 409.898 121.658 409.598 121.106C409.298 120.554 408.89 120.134 408.374 119.846C407.87 119.546 407.312 119.396 406.7 119.396C406.088 119.396 405.53 119.54 405.026 119.828C404.522 120.116 404.12 120.536 403.82 121.088C403.52 121.64 403.37 122.288 403.37 123.032C403.37 123.788 403.52 124.448 403.82 125.012C404.12 125.564 404.522 125.99 405.026 126.29C405.53 126.578 406.088 126.722 406.7 126.722C407.312 126.722 407.87 126.578 408.374 126.29C408.89 125.99 409.298 125.564 409.598 125.012C409.898 124.448 410.048 123.794 410.048 123.05ZM416.47 119.486V125.3C416.47 125.78 416.572 126.122 416.776 126.326C416.98 126.518 417.334 126.614 417.838 126.614H419.044V128H417.568C416.656 128 415.972 127.79 415.516 127.37C415.06 126.95 414.832 126.26 414.832 125.3V119.486H413.554V118.136H414.832V115.652H416.47V118.136H419.044V119.486H416.47Z" fill="#280948"/>
<path d="M409.181 160.12H402.161V164.68C402.467 164.253 402.921 163.907 403.521 163.64C404.121 163.36 404.767 163.22 405.461 163.22C406.567 163.22 407.467 163.453 408.161 163.92C408.854 164.373 409.347 164.967 409.641 165.7C409.947 166.42 410.101 167.187 410.101 168C410.101 168.96 409.921 169.82 409.561 170.58C409.201 171.34 408.647 171.94 407.901 172.38C407.167 172.82 406.254 173.04 405.161 173.04C403.761 173.04 402.627 172.68 401.761 171.96C400.894 171.24 400.367 170.28 400.181 169.08H401.961C402.134 169.84 402.501 170.433 403.061 170.86C403.621 171.287 404.327 171.5 405.181 171.5C406.234 171.5 407.027 171.187 407.561 170.56C408.094 169.92 408.361 169.08 408.361 168.04C408.361 167 408.094 166.2 407.561 165.64C407.027 165.067 406.241 164.78 405.201 164.78C404.494 164.78 403.874 164.953 403.341 165.3C402.821 165.633 402.441 166.093 402.201 166.68H400.481V158.52H409.181V160.12Z" fill="#280948"/>
<path d="M396.805 206.2V204.54H400.565V219H398.725V206.2H396.805ZM403.471 217.54C405.165 216.18 406.491 215.067 407.451 214.2C408.411 213.32 409.218 212.407 409.871 211.46C410.538 210.5 410.871 209.56 410.871 208.64C410.871 207.773 410.658 207.093 410.231 206.6C409.818 206.093 409.145 205.84 408.211 205.84C407.305 205.84 406.598 206.127 406.091 206.7C405.598 207.26 405.331 208.013 405.291 208.96H403.531C403.585 207.467 404.038 206.313 404.891 205.5C405.745 204.687 406.845 204.28 408.191 204.28C409.565 204.28 410.651 204.66 411.451 205.42C412.265 206.18 412.671 207.227 412.671 208.56C412.671 209.667 412.338 210.747 411.671 211.8C411.018 212.84 410.271 213.76 409.431 214.56C408.591 215.347 407.518 216.267 406.211 217.32H413.091V218.84H403.471V217.54Z" fill="#280948"/>
<defs>
<clipPath id="clip0_150_129">
<rect width="36" height="36" fill="white" transform="translate(420 77.034) rotate(-180)"/>
</clipPath>
<clipPath id="clip1_150_129">
<rect width="36" height="36" fill="white" transform="translate(324 41.034)"/>
</clipPath>
</defs>
</svg>
