<svg width="20" height="20" viewBox="0 0 20 20" fill="none" xmlns="http://www.w3.org/2000/svg">
<path d="M5.80749 5.80752C5.86554 5.74931 5.93451 5.70314 6.01045 5.67163C6.08638 5.64012 6.16778 5.6239 6.24999 5.6239C6.3322 5.6239 6.4136 5.64012 6.48953 5.67163C6.56546 5.70314 6.63443 5.74931 6.69249 5.80752L9.99999 9.11627L13.3075 5.80752C13.3656 5.74941 13.4346 5.70331 13.5105 5.67186C13.5864 5.64042 13.6678 5.62423 13.75 5.62423C13.8322 5.62423 13.9135 5.64042 13.9895 5.67186C14.0654 5.70331 14.1344 5.74941 14.1925 5.80752C14.2506 5.86563 14.2967 5.93461 14.3281 6.01054C14.3596 6.08646 14.3758 6.16784 14.3758 6.25002C14.3758 6.3322 14.3596 6.41357 14.3281 6.4895C14.2967 6.56542 14.2506 6.63441 14.1925 6.69252L10.8837 10L14.1925 13.3075C14.2506 13.3656 14.2967 13.4346 14.3281 13.5105C14.3596 13.5865 14.3758 13.6678 14.3758 13.75C14.3758 13.8322 14.3596 13.9136 14.3281 13.9895C14.2967 14.0654 14.2506 14.1344 14.1925 14.1925C14.1344 14.2506 14.0654 14.2967 13.9895 14.3282C13.9135 14.3596 13.8322 14.3758 13.75 14.3758C13.6678 14.3758 13.5864 14.3596 13.5105 14.3282C13.4346 14.2967 13.3656 14.2506 13.3075 14.1925L9.99999 10.8838L6.69249 14.1925C6.63438 14.2506 6.56539 14.2967 6.48947 14.3282C6.41354 14.3596 6.33217 14.3758 6.24999 14.3758C6.16781 14.3758 6.08643 14.3596 6.01051 14.3282C5.93458 14.2967 5.8656 14.2506 5.80749 14.1925C5.74938 14.1344 5.70328 14.0654 5.67183 13.9895C5.64038 13.9136 5.6242 13.8322 5.6242 13.75C5.6242 13.6678 5.64038 13.5865 5.67183 13.5105C5.70328 13.4346 5.74938 13.3656 5.80749 13.3075L9.11624 10L5.80749 6.69252C5.74928 6.63446 5.7031 6.56549 5.6716 6.48956C5.64009 6.41363 5.62387 6.33223 5.62387 6.25002C5.62387 6.16781 5.64009 6.08641 5.6716 6.01048C5.7031 5.93454 5.74928 5.86558 5.80749 5.80752Z" fill="#280948"/>
</svg>
