<svg width="26" height="26" viewBox="0 0 26 26" fill="none" xmlns="http://www.w3.org/2000/svg">
<path d="M7.54974 7.54974C7.62521 7.47407 7.71487 7.41404 7.81358 7.37308C7.91229 7.33212 8.01812 7.31104 8.12499 7.31104C8.23186 7.31104 8.33768 7.33212 8.43639 7.37308C8.5351 7.41404 8.62476 7.47407 8.70024 7.54974L13 11.8511L17.2997 7.54974C17.3753 7.47419 17.465 7.41427 17.5637 7.37339C17.6624 7.3325 17.7682 7.31146 17.875 7.31146C17.9818 7.31146 18.0876 7.3325 18.1863 7.37339C18.285 7.41427 18.3747 7.47419 18.4502 7.54974C18.5258 7.62528 18.5857 7.71496 18.6266 7.81366C18.6675 7.91237 18.6885 8.01815 18.6885 8.12499C18.6885 8.23182 18.6675 8.33761 18.6266 8.43631C18.5857 8.53501 18.5258 8.62469 18.4502 8.70024L14.1489 13L18.4502 17.2997C18.5258 17.3753 18.5857 17.465 18.6266 17.5637C18.6675 17.6624 18.6885 17.7682 18.6885 17.875C18.6885 17.9818 18.6675 18.0876 18.6266 18.1863C18.5857 18.285 18.5258 18.3747 18.4502 18.4502C18.3747 18.5258 18.285 18.5857 18.1863 18.6266C18.0876 18.6675 17.9818 18.6885 17.875 18.6885C17.7682 18.6885 17.6624 18.6675 17.5637 18.6266C17.465 18.5857 17.3753 18.5258 17.2997 18.4502L13 14.1489L8.70024 18.4502C8.62469 18.5258 8.53501 18.5857 8.43631 18.6266C8.33761 18.6675 8.23182 18.6885 8.12499 18.6885C8.01815 18.6885 7.91237 18.6675 7.81366 18.6266C7.71496 18.5857 7.62528 18.5258 7.54974 18.4502C7.47419 18.3747 7.41427 18.285 7.37339 18.1863C7.3325 18.0876 7.31146 17.9818 7.31146 17.875C7.31146 17.7682 7.3325 17.6624 7.37339 17.5637C7.41427 17.465 7.47419 17.3753 7.54974 17.2997L11.8511 13L7.54974 8.70024C7.47407 8.62476 7.41404 8.5351 7.37308 8.43639C7.33212 8.33768 7.31104 8.23186 7.31104 8.12499C7.31104 8.01812 7.33212 7.91229 7.37308 7.81358C7.41404 7.71487 7.47407 7.62521 7.54974 7.54974Z" fill="#280948"/>
</svg>
