<svg width="12" height="7" viewBox="0 0 12 7" fill="none" xmlns="http://www.w3.org/2000/svg">
<path d="M6.62572 6.07886L10.8562 1.84842C11.1143 1.59031 11.1143 1.1717 10.8562 0.913593C10.598 0.65543 10.1795 0.65543 9.92134 0.913593L6.81931 4.01562C6.81931 4.01562 6.50717 4.3652 6.16082 4.35787C5.82281 4.3507 5.4973 4.01562 5.4973 4.01562L2.39527 0.913698C2.13711 0.655535 1.71861 0.655535 1.46045 0.913698C1.33147 1.04273 1.26685 1.21194 1.26685 1.38111C1.26685 1.55027 1.33147 1.71944 1.46045 1.84852L5.69089 6.07886C5.94906 6.33702 6.36755 6.33702 6.62572 6.07886Z" fill="#280948" stroke="#280948" stroke-width="0.71051"/>
</svg>
