<svg width="24" height="24" viewBox="0 0 24 24" fill="none" xmlns="http://www.w3.org/2000/svg">
<g clip-path="url(#clip0_761_3349)">
<path d="M15.1005 1.30529C14.6968 0.892104 14.2145 0.563784 13.682 0.339627C13.1496 0.115471 12.5777 0 12 0C11.4223 0 10.8504 0.115471 10.318 0.339627C9.78554 0.563784 9.30327 0.892104 8.89951 1.30529L7.96651 2.26229L6.63151 2.24579C6.05364 2.23895 5.48023 2.34773 4.94501 2.56572C4.40978 2.78372 3.92355 3.10653 3.5149 3.51518C3.10625 3.92383 2.78344 4.41006 2.56545 4.94529C2.34745 5.48051 2.23867 6.05392 2.24551 6.63179L2.26051 7.96679L1.30651 8.89979C0.893324 9.30355 0.565004 9.78582 0.340848 10.3183C0.116692 10.8507 0.0012207 11.4226 0.0012207 12.0003C0.0012207 12.578 0.116692 13.1499 0.340848 13.6823C0.565004 14.2148 0.893324 14.697 1.30651 15.1008L2.26201 16.0338L2.24551 17.3688C2.23867 17.9467 2.34745 18.5201 2.56545 19.0553C2.78344 19.5905 3.10625 20.0768 3.5149 20.4854C3.92355 20.8941 4.40978 21.2169 4.94501 21.4349C5.48023 21.6529 6.05364 21.7616 6.63151 21.7548L7.96651 21.7398L8.89951 22.6938C9.30327 23.107 9.78554 23.4353 10.318 23.6595C10.8504 23.8836 11.4223 23.9991 12 23.9991C12.5777 23.9991 13.1496 23.8836 13.682 23.6595C14.2145 23.4353 14.6968 23.107 15.1005 22.6938L16.0335 21.7383L17.3685 21.7548C17.9464 21.7616 18.5198 21.6529 19.055 21.4349C19.5902 21.2169 20.0765 20.8941 20.4851 20.4854C20.8938 20.0768 21.2166 19.5905 21.4346 19.0553C21.6526 18.5201 21.7614 17.9467 21.7545 17.3688L21.7395 16.0338L22.6935 15.1008C23.1067 14.697 23.435 14.2148 23.6592 13.6823C23.8833 13.1499 23.9988 12.578 23.9988 12.0003C23.9988 11.4226 23.8833 10.8507 23.6592 10.3183C23.435 9.78582 23.1067 9.30355 22.6935 8.89979L21.738 7.96679L21.7545 6.63179C21.7614 6.05392 21.6526 5.48051 21.4346 4.94529C21.2166 4.41006 20.8938 3.92383 20.4851 3.51518C20.0765 3.10653 19.5902 2.78372 19.055 2.56572C18.5198 2.34773 17.9464 2.23895 17.3685 2.24579L16.0335 2.26079L15.1005 1.30679V1.30529ZM15.531 10.2813L11.031 14.7813C10.9613 14.8511 10.8786 14.9066 10.7875 14.9444C10.6963 14.9822 10.5987 15.0016 10.5 15.0016C10.4014 15.0016 10.3037 14.9822 10.2126 14.9444C10.1214 14.9066 10.0387 14.8511 9.96901 14.7813L7.71901 12.5313C7.64928 12.4616 7.59397 12.3788 7.55623 12.2877C7.51849 12.1966 7.49907 12.0989 7.49907 12.0003C7.49907 11.9017 7.51849 11.804 7.55623 11.7129C7.59397 11.6218 7.64928 11.539 7.71901 11.4693C7.78875 11.3996 7.87153 11.3442 7.96264 11.3065C8.05375 11.2688 8.1514 11.2493 8.25001 11.2493C8.34863 11.2493 8.44628 11.2688 8.53739 11.3065C8.6285 11.3442 8.71128 11.3996 8.78101 11.4693L10.5 13.1898L14.469 9.21929C14.6098 9.07846 14.8008 8.99935 15 8.99935C15.1992 8.99935 15.3902 9.07846 15.531 9.21929C15.6718 9.36012 15.751 9.55113 15.751 9.75029C15.751 9.94946 15.6718 10.1405 15.531 10.2813V10.2813Z" fill="white"/>
</g>
<defs>
<clipPath id="clip0_761_3349">
<rect width="24" height="24" fill="white"/>
</clipPath>
</defs>
</svg>
